<svg id="Capa_1" data-name="Capa 1" xmlns="http://www.w3.org/2000/svg" viewBox="0 0 49.96 49.96"><defs><style>.cls-1{fill:#fff;stroke:#aaa;stroke-miterlimit:10;}.cls-2{fill:#777;}</style></defs><rect class="cls-1" x="0.5" y="0.5" width="48.96" height="48.96"/><path class="cls-2" d="M28.84,21.23l-3.46-3.94a.48.48,0,0,0-.36-.17.48.48,0,0,0-.37.17l-3.46,3.94a.49.49,0,0,0-.08.53.51.51,0,0,0,.45.29h2v6.41A.49.49,0,0,0,24,29h2a.49.49,0,0,0,.49-.49V22.05h2a.5.5,0,0,0,.44-.29A.47.47,0,0,0,28.84,21.23Z" transform="translate(-0.02 -0.02)"/><path class="cls-2" d="M30.44,28v3H19.59V28h-2v4a1,1,0,0,0,1,1H31.44a1,1,0,0,0,1-1V28Z" transform="translate(-0.02 -0.02)"/></svg>