<svg id="Capa_1" data-name="Capa 1" xmlns="http://www.w3.org/2000/svg" viewBox="0 0 199 199"><defs><style>.cls-1{fill:#fff;stroke:#aaa;stroke-miterlimit:10;}.cls-2{fill:#777;}</style></defs><rect class="cls-1" x="0.5" y="0.5" width="198" height="198"/><path class="cls-2" d="M115.54,84.76l-14-16a2,2,0,0,0-3,0l-14,16a2,2,0,0,0,1.48,3.29h8V114a2,2,0,0,0,2,2h8a2,2,0,0,0,2-2V88.05h8a2,2,0,0,0,1.81-1.16A1.9,1.9,0,0,0,115.54,84.76Z" transform="translate(-0.5 -0.5)"/><path class="cls-2" d="M122,112v12H78.13V112h-8v16a4,4,0,0,0,4,4H126a4,4,0,0,0,4-4V112Z" transform="translate(-0.5 -0.5)"/></svg>